<svg width="22" height="21" viewBox="0 0 22 21" fill="none" xmlns="http://www.w3.org/2000/svg">
<path d="M7.95949 1.75L4.79199 4.92625" stroke="#85858B" stroke-width="1.3" stroke-miterlimit="10" stroke-linecap="round" stroke-linejoin="round"/>
<path d="M13.542 1.75L16.7095 4.92625" stroke="#85858B" stroke-width="1.3" stroke-miterlimit="10" stroke-linecap="round" stroke-linejoin="round"/>
<path d="M2 6.86719C2 5.24844 2.86625 5.11719 3.9425 5.11719H17.5575C18.6338 5.11719 19.5 5.24844 19.5 6.86719C19.5 8.74844 18.6338 8.61719 17.5575 8.61719H3.9425C2.86625 8.61719 2 8.74844 2 6.86719Z" stroke="#85858B" stroke-width="1.3"/>
<path d="M8.79004 12.25V15.3562" stroke="#85858B" stroke-width="1.3" stroke-linecap="round"/>
<path d="M12.8154 12.25V15.3562" stroke="#85858B" stroke-width="1.3" stroke-linecap="round"/>
<path d="M3.3125 8.75L4.54625 16.31C4.82625 18.0075 5.5 19.25 8.0025 19.25H13.2788C16 19.25 16.4025 18.06 16.7175 16.415L18.1875 8.75" stroke="#85858B" stroke-width="1.3" stroke-linecap="round"/>
</svg>
