<svg width="20" height="13" viewBox="0 0 20 13" fill="none" xmlns="http://www.w3.org/2000/svg">
<path d="M1.06668 7.5001H2.13333C2.72244 7.5001 3.20001 8.01497 3.20001 8.6501V10.9501C3.20001 11.5852 2.72244 12.1001 2.13333 12.1001H1.06668C0.477577 12.1001 0 11.5852 0 10.9501V8.6501C0 8.01497 0.477577 7.5001 1.06668 7.5001ZM6.36667 5.1001H7.43332C8.02242 5.1001 8.5 5.62243 8.5 6.26676V10.9334C8.5 11.5778 8.02242 12.1001 7.43332 12.1001H6.36667C5.77756 12.1001 5.29999 11.5778 5.29999 10.9334V6.26676C5.29999 5.62243 5.77756 5.1001 6.36667 5.1001ZM11.7667 2.5001H12.8333C13.4224 2.5001 13.9 3.01587 13.9 3.6521V10.9481C13.9 11.5843 13.4224 12.1001 12.8333 12.1001H11.7667C11.1776 12.1001 10.7 11.5843 10.7 10.9481V3.6521C10.7 3.01587 11.1776 2.5001 11.7667 2.5001ZM18.1333 0.100098C18.7224 0.100098 19.2 0.603777 19.2 1.2251V10.9751C19.2 11.5964 18.7224 12.1001 18.1333 12.1001H17.0667C16.4776 12.1001 16 11.5964 16 10.9751V1.2251C16 0.603777 16.4776 0.100098 17.0667 0.100098H18.1333Z" fill="black"/>
</svg>
