<svg width="18" height="13" viewBox="0 0 18 13" fill="none" xmlns="http://www.w3.org/2000/svg">
<path d="M9.27131 2.62056C11.7584 2.62066 14.1504 3.52567 15.9529 5.14853C16.0887 5.27382 16.3056 5.27224 16.4393 5.14499L17.7368 3.90492C17.8045 3.84038 17.8422 3.75295 17.8417 3.66198C17.8411 3.57102 17.8023 3.48402 17.7338 3.42023C13.0028 -0.873475 5.53909 -0.873475 0.808083 3.42023C0.739551 3.48397 0.700659 3.57095 0.70002 3.66191C0.699396 3.75287 0.737055 3.84033 0.804695 3.90492L2.10258 5.14499C2.23617 5.27243 2.45328 5.27402 2.58894 5.14853C4.39168 3.52557 6.78395 2.62055 9.27131 2.62056ZM9.26954 6.76268C10.6269 6.7626 11.9357 7.26486 12.9418 8.17188C13.0779 8.3006 13.2923 8.29781 13.425 8.16559L14.7122 6.87071C14.78 6.80279 14.8176 6.71065 14.8167 6.61491C14.8157 6.51916 14.7762 6.4278 14.707 6.36127C11.6432 3.52396 6.89847 3.52396 3.83463 6.36127C3.76543 6.4278 3.72594 6.51921 3.72501 6.61498C3.72412 6.71076 3.76188 6.80289 3.82981 6.87071L5.11671 8.16559C5.24936 8.29781 5.46372 8.3006 5.5998 8.17188C6.60525 7.26546 7.91312 6.76324 9.26954 6.76268ZM11.6892 9.78003C11.7565 9.70759 11.7935 9.6079 11.7916 9.5045C11.7897 9.4011 11.7489 9.30315 11.679 9.23379C10.2889 7.94423 8.25299 7.94423 6.86289 9.23379C6.79291 9.3031 6.75209 9.40101 6.7501 9.50441C6.74811 9.60781 6.78508 9.70753 6.85233 9.78003L9.02937 12.1893C9.09317 12.2601 9.18017 12.3 9.27094 12.3C9.36171 12.3 9.44871 12.2601 9.51252 12.1893L11.6892 9.78003Z" fill="black"/>
</svg>
