<svg width="27" height="13" viewBox="0 0 27 13" fill="none" xmlns="http://www.w3.org/2000/svg">
<path d="M18.5996 0C20.8398 0 21.9608 -0.000427062 22.8164 0.435547C23.5689 0.819016 24.181 1.43109 24.5645 2.18359C25.0004 3.03924 25 4.16018 25 6.40039V6.59961C25 8.83982 25.0004 9.96076 24.5645 10.8164C24.181 11.5689 23.5689 12.181 22.8164 12.5645C21.9608 13.0004 20.8398 13 18.5996 13H6.40039C4.16018 13 3.03924 13.0004 2.18359 12.5645C1.43109 12.181 0.819016 11.5689 0.435547 10.8164C-0.000427062 9.96076 0 8.83982 0 6.59961V6.40039C0 4.16018 -0.000427062 3.03924 0.435547 2.18359C0.819016 1.43109 1.43109 0.819016 2.18359 0.435547C3.03924 -0.000427062 4.16018 0 6.40039 0H18.5996ZM8.96973 2.77344C8.18197 2.77344 7.53581 3.00781 7.03125 3.47656C6.52669 3.94531 6.27441 4.5459 6.27441 5.27832C6.27441 5.95215 6.49251 6.51042 6.92871 6.95312C7.36816 7.39258 7.92318 7.6123 8.59375 7.6123C9.00391 7.6123 9.36523 7.52279 9.67773 7.34375C9.99349 7.16146 10.2311 6.9043 10.3906 6.57227H10.4785C10.4948 7.30469 10.3646 7.88737 10.0879 8.32031C9.81445 8.75325 9.43685 8.96973 8.95508 8.96973C8.67839 8.96973 8.4375 8.90137 8.23242 8.76465C8.0306 8.62793 7.89551 8.44401 7.82715 8.21289H6.36719C6.4681 8.79883 6.75619 9.27409 7.23145 9.63867C7.70671 10 8.278 10.1807 8.94531 10.1807C9.86328 10.1807 10.5827 9.847 11.1035 9.17969C11.6243 8.51237 11.8848 7.59277 11.8848 6.4209C11.8848 5.44759 11.6878 4.65495 11.2939 4.04297C11.0498 3.62956 10.7275 3.31543 10.3271 3.10059C9.93001 2.88249 9.47754 2.77344 8.96973 2.77344ZM15.8154 2.77344C15.0277 2.77344 14.3815 3.00781 13.877 3.47656C13.3724 3.94531 13.1201 4.5459 13.1201 5.27832C13.1201 5.95215 13.3382 6.51042 13.7744 6.95312C14.2139 7.39258 14.7689 7.6123 15.4395 7.6123C15.8496 7.6123 16.2109 7.52279 16.5234 7.34375C16.8392 7.16146 17.0768 6.9043 17.2363 6.57227H17.3242C17.3405 7.30469 17.2103 7.88737 16.9336 8.32031C16.6602 8.75325 16.2826 8.96973 15.8008 8.96973C15.5241 8.96973 15.2832 8.90137 15.0781 8.76465C14.8763 8.62793 14.7412 8.44401 14.6729 8.21289H13.2129C13.3138 8.79883 13.6019 9.27409 14.0771 9.63867C14.5524 10 15.1237 10.1807 15.791 10.1807C16.709 10.1807 17.4284 9.847 17.9492 9.17969C18.4701 8.51237 18.7305 7.59277 18.7305 6.4209C18.7305 5.44759 18.5335 4.65495 18.1396 4.04297C17.8955 3.62956 17.5732 3.31543 17.1729 3.10059C16.7757 2.88249 16.3232 2.77344 15.8154 2.77344ZM8.98438 3.97949C9.3457 3.97949 9.64844 4.10156 9.89258 4.3457C10.1367 4.58659 10.2588 4.88607 10.2588 5.24414C10.2588 5.59896 10.1367 5.89355 9.89258 6.12793C9.65169 6.35905 9.34733 6.47461 8.97949 6.47461C8.61165 6.47461 8.30729 6.35742 8.06641 6.12305C7.82552 5.88867 7.70508 5.59082 7.70508 5.22949C7.70508 4.87793 7.82715 4.58171 8.07129 4.34082C8.31868 4.09994 8.62305 3.97949 8.98438 3.97949ZM15.8301 3.97949C16.1914 3.97949 16.4941 4.10156 16.7383 4.3457C16.9824 4.58659 17.1045 4.88607 17.1045 5.24414C17.1045 5.59896 16.9824 5.89355 16.7383 6.12793C16.4974 6.35905 16.193 6.47461 15.8252 6.47461C15.4574 6.47461 15.153 6.35742 14.9121 6.12305C14.6712 5.88867 14.5508 5.59082 14.5508 5.22949C14.5508 4.87793 14.6729 4.58171 14.917 4.34082C15.1644 4.09994 15.4688 3.97949 15.8301 3.97949Z" fill="black" fill-opacity="0.4"/>
<path d="M21 13H6.40039C4.16018 13 3.03924 13.0004 2.18359 12.5645C1.43109 12.181 0.819016 11.5689 0.435547 10.8164C-0.000427062 9.96076 0 8.83982 0 6.59961V6.40039C0 4.16018 -0.000427062 3.03924 0.435547 2.18359C0.819016 1.43109 1.43109 0.819016 2.18359 0.435547C3.03924 -0.000427062 4.16018 0 6.40039 0H21V13ZM8.96973 2.77344C8.18197 2.77344 7.53581 3.00781 7.03125 3.47656C6.52669 3.94531 6.27441 4.5459 6.27441 5.27832C6.27441 5.95215 6.49251 6.51042 6.92871 6.95312C7.36816 7.39258 7.92318 7.6123 8.59375 7.6123C9.00391 7.6123 9.36523 7.52279 9.67773 7.34375C9.99349 7.16146 10.2311 6.9043 10.3906 6.57227H10.4785C10.4948 7.30469 10.3646 7.88737 10.0879 8.32031C9.81445 8.75325 9.43685 8.96973 8.95508 8.96973C8.67839 8.96973 8.4375 8.90137 8.23242 8.76465C8.0306 8.62793 7.89551 8.44401 7.82715 8.21289H6.36719C6.4681 8.79883 6.75619 9.27409 7.23145 9.63867C7.70671 10 8.278 10.1807 8.94531 10.1807C9.86328 10.1807 10.5827 9.847 11.1035 9.17969C11.6243 8.51237 11.8848 7.59277 11.8848 6.4209C11.8848 5.44759 11.6878 4.65495 11.2939 4.04297C11.0498 3.62956 10.7275 3.31543 10.3271 3.10059C9.93001 2.88249 9.47754 2.77344 8.96973 2.77344ZM15.8154 2.77344C15.0277 2.77344 14.3815 3.00781 13.877 3.47656C13.3724 3.94531 13.1201 4.5459 13.1201 5.27832C13.1201 5.95215 13.3382 6.51042 13.7744 6.95312C14.2139 7.39258 14.7689 7.6123 15.4395 7.6123C15.8496 7.6123 16.2109 7.52279 16.5234 7.34375C16.8392 7.16146 17.0768 6.9043 17.2363 6.57227H17.3242C17.3405 7.30469 17.2103 7.88737 16.9336 8.32031C16.6602 8.75325 16.2826 8.96973 15.8008 8.96973C15.5241 8.96973 15.2832 8.90137 15.0781 8.76465C14.8763 8.62793 14.7412 8.44401 14.6729 8.21289H13.2129C13.3138 8.79883 13.6019 9.27409 14.0771 9.63867C14.5524 10 15.1237 10.1807 15.791 10.1807C16.709 10.1807 17.4284 9.847 17.9492 9.17969C18.4701 8.51237 18.7305 7.59277 18.7305 6.4209C18.7305 5.44759 18.5335 4.65495 18.1396 4.04297C17.8955 3.62956 17.5732 3.31543 17.1729 3.10059C16.7757 2.88249 16.3232 2.77344 15.8154 2.77344ZM8.98438 3.97949C9.3457 3.97949 9.64844 4.10156 9.89258 4.3457C10.1367 4.58659 10.2588 4.88607 10.2588 5.24414C10.2588 5.59896 10.1367 5.89355 9.89258 6.12793C9.65169 6.35905 9.34733 6.47461 8.97949 6.47461C8.61165 6.47461 8.30729 6.35742 8.06641 6.12305C7.82552 5.88867 7.70508 5.59082 7.70508 5.22949C7.70508 4.87793 7.82715 4.58171 8.07129 4.34082C8.31868 4.09994 8.62305 3.97949 8.98438 3.97949ZM15.8301 3.97949C16.1914 3.97949 16.4941 4.10156 16.7383 4.3457C16.9824 4.58659 17.1045 4.88607 17.1045 5.24414C17.1045 5.59896 16.9824 5.89355 16.7383 6.12793C16.4974 6.35905 16.193 6.47461 15.8252 6.47461C15.4574 6.47461 15.153 6.35742 14.9121 6.12305C14.6712 5.88867 14.5508 5.59082 14.5508 5.22949C14.5508 4.87793 14.6729 4.58171 14.917 4.34082C15.1644 4.09994 15.4688 3.97949 15.8301 3.97949Z" fill="black"/>
<path d="M25.5 4C25.8978 4 26.2794 4.26339 26.5607 4.73223C26.842 5.20107 27 5.83696 27 6.5C27 7.16304 26.842 7.79893 26.5607 8.26777C26.2794 8.73661 25.8978 9 25.5 9L25.5 6.5V4Z" fill="black"/>
</svg>
