<svg width="13" height="8" viewBox="0 0 13 8" fill="none" xmlns="http://www.w3.org/2000/svg">
<path d="M2.287 2.66089C1.55048 2.66089 0.947876 3.2635 0.947876 4.00001C0.947876 4.73653 1.55048 5.33914 2.287 5.33914C3.02352 5.33914 3.62613 4.73653 3.62613 4.00001C3.62613 3.2635 3.02352 2.66089 2.287 2.66089Z" fill="#666666"/>
<path d="M11.6609 2.66089C10.9244 2.66089 10.3218 3.2635 10.3218 4.00001C10.3218 4.73653 10.9244 5.33914 11.6609 5.33914C12.3974 5.33914 13 4.73653 13 4.00001C13 3.2635 12.3974 2.66089 11.6609 2.66089Z" fill="#666666"/>
<path d="M6.97401 2.66089C6.23749 2.66089 5.63489 3.2635 5.63489 4.00001C5.63489 4.73653 6.23749 5.33914 6.97401 5.33914C7.71053 5.33914 8.31314 4.73653 8.31314 4.00001C8.31314 3.2635 7.71053 2.66089 6.97401 2.66089Z" fill="#666666"/>
</svg>
