<svg width="22" height="21" viewBox="0 0 22 21" fill="none" xmlns="http://www.w3.org/2000/svg">
<path d="M5.125 8.75H6.875C8.625 8.75 9.5 7.875 9.5 6.125V4.375C9.5 2.625 8.625 1.75 6.875 1.75H5.125C3.375 1.75 2.5 2.625 2.5 4.375V6.125C2.5 7.875 3.375 8.75 5.125 8.75Z" stroke="#85858B" stroke-width="1.3" stroke-miterlimit="10" stroke-linecap="round" stroke-linejoin="round"/>
<path d="M15.625 8.75H17.375C19.125 8.75 20 7.875 20 6.125V4.375C20 2.625 19.125 1.75 17.375 1.75H15.625C13.875 1.75 13 2.625 13 4.375V6.125C13 7.875 13.875 8.75 15.625 8.75Z" stroke="#85858B" stroke-width="1.3" stroke-miterlimit="10" stroke-linecap="round" stroke-linejoin="round"/>
<path d="M15.625 19.25H17.375C19.125 19.25 20 18.375 20 16.625V14.875C20 13.125 19.125 12.25 17.375 12.25H15.625C13.875 12.25 13 13.125 13 14.875V16.625C13 18.375 13.875 19.25 15.625 19.25Z" stroke="#85858B" stroke-width="1.3" stroke-miterlimit="10" stroke-linecap="round" stroke-linejoin="round"/>
<path d="M5.125 19.25H6.875C8.625 19.25 9.5 18.375 9.5 16.625V14.875C9.5 13.125 8.625 12.25 6.875 12.25H5.125C3.375 12.25 2.5 13.125 2.5 14.875V16.625C2.5 18.375 3.375 19.25 5.125 19.25Z" stroke="#85858B" stroke-width="1.3" stroke-miterlimit="10" stroke-linecap="round" stroke-linejoin="round"/>
</svg>
