<svg width="21" height="21" viewBox="0 0 21 21" fill="none" xmlns="http://www.w3.org/2000/svg">
<path d="M7.34655 18.9553H3.98376C2.74494 18.9553 1.74121 17.9516 1.74121 16.7128V10.116C1.74197 9.6354 1.84541 9.16053 2.0446 8.72318C2.2438 8.28583 2.53415 7.8961 2.89621 7.58008L8.95742 2.3008C9.36557 1.94574 9.88831 1.75018 10.4293 1.75018C10.9703 1.75018 11.493 1.94574 11.9011 2.3008L17.9624 7.5811C18.3243 7.897 18.6146 8.28657 18.8138 8.72374C19.0129 9.1609 19.1165 9.63557 19.1174 10.116V16.7128C19.1174 17.3074 18.8812 17.8776 18.4609 18.2981C18.0406 18.7187 17.4704 18.9551 16.8758 18.9553H13.7921V12.2287C13.7921 11.3006 13.0398 10.5473 12.1107 10.5473H9.02897C8.09986 10.5473 7.34757 11.3006 7.34757 12.2287L7.34655 18.9553ZM7.34655 18.9553H13.7931" stroke="#292928" stroke-width="1.3" stroke-linejoin="round"/>
</svg>
